<svg width="46" height="35" viewBox="0 0 46 35" fill="none" xmlns="http://www.w3.org/2000/svg">
<path d="M45.0415 18.0942C44.5123 18.0942 44.0831 18.5234 44.0831 19.0526V29.9582C44.0823 30.7206 43.779 31.4514 43.2403 31.9904C42.7013 32.5291 41.9705 32.8324 41.2081 32.8333H4.79164C4.02926 32.8324 3.29851 32.5291 2.75944 31.9904C2.2208 31.4514 1.91748 30.7206 1.91663 29.9582V17.5H29.6129C30.1421 17.5 30.5712 17.0709 30.5712 16.5416C30.5712 16.0124 30.1421 15.5833 29.6129 15.5833H1.91663V13.6667H28.0697C28.5989 13.6667 29.028 13.2375 29.028 12.7083C29.028 12.1791 28.5989 11.75 28.0697 11.75H1.91663V10.7917C1.91748 10.0293 2.2208 9.29855 2.75944 8.75947C3.2985 8.22084 4.02925 7.91751 4.79164 7.91666H27.7915C28.3207 7.91666 28.7499 7.48754 28.7499 6.95833C28.7499 6.42911 28.3207 6 27.7915 6H4.79164C3.52139 6.00128 2.30338 6.50697 1.40496 7.40496C0.506962 8.3034 0.00131428 9.52139 0 10.7916V29.9582C0.0012835 31.2285 0.506972 32.4465 1.40496 33.3449C2.30339 34.2429 3.52139 34.7485 4.79164 34.7499H41.2081C42.4784 34.7486 43.6964 34.2429 44.5948 33.3449C45.4928 32.4465 45.9984 31.2285 45.9998 29.9582V19.0525C45.9998 18.7984 45.8988 18.5546 45.7191 18.3749C45.5394 18.1952 45.2956 18.0942 45.0414 18.0942L45.0415 18.0942Z" fill="#589195"/>
<path d="M8.62489 22.8304H4.79158C4.26236 22.8304 3.83325 23.2595 3.83325 23.7887C3.83325 24.3179 4.26236 24.747 4.79158 24.747H8.62489C9.15411 24.747 9.58322 24.3179 9.58322 23.7887C9.58322 23.2595 9.15411 22.8304 8.62489 22.8304Z" fill="#589195"/>
<path d="M8.62489 27.622H4.79158C4.26236 27.622 3.83325 28.0511 3.83325 28.5803C3.83325 29.1095 4.26236 29.5386 4.79158 29.5386H8.62489C9.15411 29.5386 9.58322 29.1095 9.58322 28.5803C9.58322 28.0511 9.15411 27.622 8.62489 27.622Z" fill="#589195"/>
<path d="M12.4586 27.622C11.9294 27.622 11.5002 28.0511 11.5002 28.5803C11.5002 29.1095 11.9294 29.5386 12.4586 29.5386H16.2919C16.8211 29.5386 17.2502 29.1095 17.2502 28.5803C17.2502 28.0511 16.8211 27.622 16.2919 27.622H12.4586Z" fill="#589195"/>
<path d="M29.7836 27.4402C30.0334 28.6488 30.8497 29.6632 31.977 30.1664C33.1039 30.6695 34.4045 30.5993 35.471 29.9781C35.7589 29.8096 36.1162 29.81 36.4041 29.979C36.9868 30.32 37.6499 30.4992 38.3255 30.4975C38.5676 30.4975 38.8093 30.4757 39.0476 30.432C39.7959 30.2943 40.4851 29.9358 41.0276 29.4023C41.5696 28.8692 41.9397 28.1856 42.0903 27.4403V27.4394C42.2905 26.4618 42.1023 25.4445 41.5654 24.6033C41.0285 23.7618 40.1848 23.1629 39.2136 22.9335C38.242 22.7038 37.2195 22.8617 36.3626 23.3733C36.1003 23.5286 35.7743 23.5286 35.5121 23.3733C34.6551 22.8604 33.6318 22.7021 32.6597 22.9314C31.6882 23.1607 30.8436 23.7601 30.3067 24.6021C29.7699 25.444 29.582 26.4622 29.7835 27.4402L29.7836 27.4402ZM32.0587 25.4461V25.4457C32.356 25.0992 32.7646 24.8664 33.2147 24.7881C33.6644 24.7099 34.1277 24.7903 34.5247 25.0162C34.9513 25.2724 35.4398 25.4081 35.9374 25.4081C36.4349 25.4081 36.9235 25.2724 37.35 25.0162C37.747 24.7907 38.2099 24.7103 38.6596 24.789C39.1092 24.8673 39.5178 25.0996 39.8151 25.4457C40.1989 25.9125 40.3405 26.5332 40.1968 27.1202C40.053 27.7076 39.641 28.1923 39.0849 28.4293C38.5287 28.6659 37.8934 28.627 37.3706 28.3237C36.9355 28.07 36.441 27.9361 35.9374 27.9361C35.4338 27.9361 34.9393 28.0691 34.5042 28.3224C33.9814 28.6261 33.3465 28.6659 32.7899 28.4293C32.2338 28.1927 31.8218 27.708 31.6776 27.1206C31.5339 26.5337 31.675 25.9134 32.0588 25.4461L32.0587 25.4461Z" fill="#589195"/>
<path d="M44.2575 2.2849L39.4667 0.231774V0.231346C38.7433 -0.0771153 37.9249 -0.0771153 37.2009 0.231346L32.4084 2.28447V2.2849C31.8911 2.50608 31.4505 2.87487 31.1412 3.34419C30.8315 3.81395 30.6663 4.36413 30.6667 4.9267V9.69227C30.6732 11.751 31.347 13.7523 32.5868 15.396C33.8266 17.0398 35.5657 18.2372 37.5436 18.8096C38.06 18.9568 38.6067 18.9568 39.1231 18.8096C41.101 18.2372 42.8401 17.0398 44.08 15.396C45.3198 13.7523 45.9937 11.751 46 9.69227V4.9267C46.0004 4.36411 45.8353 3.81394 45.5256 3.34419C45.2158 2.87444 44.7747 2.50609 44.2575 2.2849ZM44.0834 9.69228C44.0782 11.3347 43.5409 12.9313 42.5518 14.2426C41.5627 15.554 40.1753 16.5097 38.5975 16.9657C38.425 17.0162 38.2419 17.0162 38.0695 16.9657C36.4917 16.5097 35.1043 15.5539 34.1152 14.2426C33.1261 12.9314 32.5887 11.3347 32.5836 9.69228V4.92671C32.5836 4.5438 32.8116 4.19726 33.1637 4.04624L37.9563 1.99312V1.99269C38.198 1.89044 38.4705 1.89044 38.7118 1.99269L43.5026 4.04581V4.04624C43.8547 4.19683 44.0836 4.54338 44.0836 4.92671L44.0834 9.69228Z" fill="#589195"/>
</svg>
